<svg width="849" height="719" viewBox="0 0 849 719" fill="none" xmlns="http://www.w3.org/2000/svg">
<g style="mix-blend-mode:color-dodge" opacity="0.4">
<path d="M613.2 93H235.8C219.261 93.0162 202.887 95.7867 187.614 101.153C172.341 106.52 158.467 114.378 146.786 124.278C135.104 134.178 125.843 145.927 119.531 158.853C113.22 171.779 109.981 185.63 110 199.615V519.385C110 578.27 166.333 626 235.8 626H613.2C682.667 626 739 578.27 739 519.385V199.615C739.031 171.376 725.795 144.283 702.204 124.294C678.613 104.305 646.598 93.0574 613.2 93.0247V93Z" fill="white"/>
</g>
<g style="mix-blend-mode:color-dodge" opacity="0.2">
<path d="M503.194 186H125.777C92.3773 186.039 60.3638 197.293 36.777 217.287C13.1901 237.28 -0.038649 264.376 8.48203e-05 292.615V612.41C-0.0308988 640.649 13.2053 667.742 36.7976 687.731C60.3899 707.72 92.4065 718.967 125.806 719H503.223C519.762 718.984 536.135 716.213 551.407 710.846C566.68 705.479 580.552 697.621 592.232 687.721C603.911 677.82 613.17 666.071 619.479 653.145C625.788 640.219 629.023 626.369 629 612.385V292.639C629 233.755 572.665 186 503.194 186Z" fill="white"/>
</g>
<g style="mix-blend-mode:color-dodge">
<path d="M723.194 0H345.777C312.377 0.0392473 280.364 11.2931 256.777 31.2866C233.19 51.28 219.961 78.3758 220 106.615V426.385C220 485.245 276.335 533 345.806 533H723.223C756.623 532.961 788.636 521.707 812.223 501.713C835.81 481.72 849.039 454.624 849 426.385V106.615C849 47.7299 792.665 0 723.194 0Z" fill="white"/>
</g>
</svg>
